<svg xmlns="http://www.w3.org/2000/svg" xmlns:xlink="http://www.w3.org/1999/xlink" width="16" height="16" id="heart"><defs><linearGradient id="b" x1="-137.5" x2="-125.5" y1="1045.239" y2="1045.239" gradientTransform="translate(139.5 -.305)" gradientUnits="userSpaceOnUse" xlink:href="#a"></linearGradient><linearGradient id="a"><stop offset="0" stop-color="#fc6a28"></stop><stop offset="1" stop-color="#f94045"></stop></linearGradient></defs><path fill="url(#b)" fill-rule="evenodd" d="M5.816 1039.506c-.977 0-1.953.373-2.702 1.121a3.801 3.801 0 0 0-.294 5.048c.962 1.19 3.603 3.55 4.696 4.512.266.234.7.233.965 0 1.075-.953 3.653-3.274 4.698-4.51a3.8 3.8 0 0 0-.292-5.047 3.806 3.806 0 0 0-4.888-.423 3.797 3.797 0 0 0-2.183-.699z" transform="translate(0 -1036.362)"></path></svg>